<?xml version="1.0" encoding="UTF-8"?>
<svg version="1.1" xmlns="http://www.w3.org/2000/svg" width="512" height="512">
<path d="M0 0 C20.58915043 21.52278732 31.0662795 49.42120547 31.75 79.0625 C30.91747052 103.58743105 23.89941132 126.49508456 9.125 146.2109375 C7.16074155 148.65830441 7.16074155 148.65830441 7.4375 151.75 C9.36430035 153.96688474 11.31040364 156.01352745 13.39782715 158.0710907 C14.03894487 158.71477169 14.68006259 159.35845269 15.34060812 160.02163917 C17.50319662 162.18919188 19.67637674 164.34580877 21.84960938 166.50268555 C23.3970318 168.04926227 24.94379494 169.59649887 26.48994446 171.14434814 C30.70005951 175.3553268 34.9193852 179.55696759 39.14036751 183.75704932 C43.54597757 188.14395337 47.94313916 192.53930854 52.34118652 196.93379211 C59.72768785 204.31201724 67.11940966 211.68497817 74.51513672 219.05395508 C82.133554 226.64484531 89.7488215 234.2388726 97.35986328 241.8371582 C97.82882159 242.30532834 98.29777989 242.77349847 98.78094906 243.25585558 C101.13349977 245.60449126 103.48598521 247.95319231 105.83844662 250.30191743 C125.36201372 269.79409496 144.89625753 289.27554352 164.4375 308.75 C168.5754539 305.26708754 172.58184204 301.72986248 176.40388489 297.8971405 C177.32776001 296.97319489 178.25163513 296.04924927 179.20350647 295.0973053 C180.20448063 294.09119915 181.20540994 293.08504839 182.20629883 292.07885742 C183.27774051 291.00549355 184.34941233 289.93235936 185.42129517 288.85943604 C187.71658465 286.56100124 190.0103153 284.26102629 192.30283546 281.95982933 C195.92631267 278.32277561 199.55364975 274.68958783 203.18156433 271.05696106 C210.87401636 263.35343925 218.56221374 255.64567763 226.25 247.9375 C234.56769672 239.59777709 242.88612707 231.25879367 251.20942324 222.9246586 C254.81803562 219.31105694 258.42419445 215.69502962 262.02850974 212.07714212 C264.26464189 209.83357189 266.50282481 207.59205631 268.74158096 205.35110474 C269.78173063 204.30907713 270.82101258 203.26618255 271.85937691 202.22237587 C273.27263341 200.80194328 274.68923912 199.38484527 276.10603333 197.96794128 C276.89890149 197.17285251 277.69176966 196.37776373 278.50866413 195.55858135 C281.72628565 192.54156452 284.09350775 192.51434827 288.47265625 192.609375 C291.071092 192.79534654 292.4290429 193.0390921 294.4375 194.75 C296.66019224 198.52857682 297.54102 200.80106665 297.0625 205.1875 C293.21218995 213.62856433 285.22979071 220.09769923 278.73852539 226.5625 C277.7816249 227.51911776 276.82494585 228.47595708 275.86846924 229.43299866 C273.29475275 232.00699976 270.71798482 234.5779257 268.14062047 237.14827347 C265.43889966 239.84370439 262.74004753 242.54200464 260.0408783 245.23999023 C254.93967778 250.33809395 249.83593561 255.43364517 244.73125499 260.52826405 C238.91542883 266.33287756 233.10247278 272.14036174 227.28974545 277.94807816 C215.34216763 289.88522901 203.39102495 301.81880449 191.4375 313.75 C192.61656418 313.75142502 193.79562836 313.75285004 195.01042175 313.75431824 C206.11974299 313.77098469 217.22869776 313.81374772 228.33782482 313.88209057 C234.04924462 313.91638744 239.76039617 313.94147479 245.47192383 313.94555664 C250.98348835 313.94983373 256.49444745 313.97824805 262.00582314 314.02343178 C264.10892524 314.03642557 266.21209973 314.04070783 268.31523705 314.03615379 C271.26054709 314.0312613 274.20407845 314.05728077 277.14916992 314.09057617 C278.45468559 314.07763771 278.45468559 314.07763771 279.78657532 314.06443787 C284.17458829 314.14764321 285.91209797 314.33767422 289.47651672 317.13496399 C292.18738016 320.74998998 292.1515334 322.99289963 291.9296875 327.37109375 C291.16832567 331.05100927 289.44872863 332.62845256 286.4375 334.75 C283.67823053 335.63402485 281.18208884 335.87634842 278.29477978 335.88142776 C277.47253452 335.88526891 276.65028925 335.88911005 275.80312747 335.8930676 C274.4562075 335.89176787 274.4562075 335.89176787 273.08207703 335.89044189 C272.12396348 335.89341302 271.16584994 335.89638414 270.17870265 335.8994453 C266.95986524 335.90813493 263.74106501 335.90964077 260.5222168 335.91113281 C258.21774211 335.91576076 255.91326819 335.92078539 253.60879517 335.92617798 C247.34223324 335.9393054 241.07568203 335.9457475 234.8091085 335.95018864 C230.89533389 335.95311855 226.98156221 335.95722319 223.06778908 335.96169281 C212.22888516 335.97380115 201.38998448 335.9841836 190.55107403 335.9875679 C189.8575868 335.98778747 189.16409958 335.98800703 188.44959759 335.98823325 C187.75446542 335.98845153 187.05933326 335.98866981 186.34313649 335.9888947 C184.93456821 335.98933816 183.52599992 335.98978473 182.11743164 335.99023438 C181.41873535 335.9904558 180.72003906 335.99067723 180.00017015 335.99090537 C168.67900257 335.99485333 157.35789937 336.01230809 146.03675666 336.0355939 C134.40989496 336.05931526 122.78306873 336.07151217 111.15618259 336.07293582 C104.62954771 336.07398476 98.10300364 336.07991164 91.57639122 336.09775543 C85.43768559 336.11421217 79.29913927 336.11640319 73.16041946 336.10761642 C70.90738435 336.10684479 68.65434076 336.1112053 66.40132713 336.12107468 C63.32531896 336.13375899 60.24987802 336.12793621 57.1738739 336.11749268 C56.28261942 336.12554908 55.39136494 336.13360548 54.47310275 336.14190602 C48.31477742 336.09301559 43.30746117 335.2496436 38.5 331.0625 C36.92675207 327.63837216 36.76326214 324.40393422 37.4375 320.75 C39.23113911 317.9399654 40.45630935 316.24059532 43.4375 314.75 C46.39644219 314.62709498 49.33334209 314.56422034 52.29345703 314.54467773 C53.21058472 314.53477814 54.1277124 314.52487854 55.07263184 314.51467896 C58.11349885 314.48301285 61.15438151 314.45828634 64.1953125 314.43359375 C66.29996148 314.41302864 68.40460629 314.39203229 70.50924683 314.37062073 C76.05601631 314.31535435 81.60282334 314.26596522 87.1496582 314.21777344 C92.80683749 314.16759172 98.46396207 314.1118883 104.12109375 314.05664062 C115.22651579 313.94900321 126.33198528 313.84757066 137.4375 313.75 C136.44737915 312.76773438 136.44737915 312.76773438 135.43725586 311.765625 C132.95453534 309.30009874 130.47419808 306.83222166 127.99536133 304.36279297 C126.92857703 303.30099139 125.86089147 302.24009442 124.79223633 301.18017578 C123.24313666 299.64341087 121.69746989 298.10325887 120.15234375 296.5625 C119.22542725 295.64082031 118.29851074 294.71914063 117.34350586 293.76953125 C115.23257574 291.6223678 113.25371165 289.39593764 111.29551697 287.10900879 C106.46546295 281.5422527 101.21163159 276.39246042 95.99438477 271.19335938 C94.85029461 270.0495518 93.70642561 268.90552298 92.5627594 267.7612915 C89.47872973 264.67697662 86.39164129 261.59574021 83.30396771 258.51507378 C80.06973484 255.28712047 76.83836079 252.05630782 73.60667419 248.82580566 C67.49611755 242.71834881 61.38301777 236.61344411 55.26898569 230.50946665 C48.3044556 223.55613979 41.34278743 216.59995057 34.38135064 209.64352703 C20.06990163 195.34251179 5.754887 181.04507028 -8.5625 166.75 C-11.97077138 168.41584051 -15.11954159 170.32238388 -18.3125 172.375 C-19.29734375 173.00664062 -20.2821875 173.63828125 -21.296875 174.2890625 C-22.41835938 175.01222656 -22.41835938 175.01222656 -23.5625 175.75 C-22.26915553 178.59898046 -20.91457334 180.64179433 -18.68920898 182.83447266 C-17.8233744 183.69523911 -17.8233744 183.69523911 -16.94004822 184.57339478 C-16.00872826 185.4845253 -16.00872826 185.4845253 -15.05859375 186.4140625 C-14.42011002 187.04734467 -13.78162628 187.68062683 -13.12379456 188.33309937 C-11.08722625 190.35187989 -9.04408925 192.36383729 -7 194.375 C-4.95322882 196.39416725 -2.90792734 198.41476901 -0.86549377 200.43832397 C0.40493566 201.69648149 1.67802842 202.95195639 2.95399475 204.20449829 C6.69870556 207.90660742 8.58278695 209.80560513 8.8125 215.0625 C8.75990402 218.6916224 8.52387678 219.62436105 6.375 222.75 C2.83805558 225.15813237 0.71186594 225.75 -3.5625 225.75 C-9.69261661 223.55411286 -13.1290801 219.18103927 -17.3203125 214.44140625 C-18.84688196 212.78918976 -20.3769461 211.1401966 -21.91015625 209.49414062 C-24.30856498 206.91103136 -26.6824791 204.31824369 -29.00244141 201.66430664 C-37.10966912 191.66229945 -37.10966912 191.66229945 -48.25650024 186.37869263 C-53.65086541 186.65116308 -58.52816215 188.11863816 -63.55271912 190.02555847 C-82.93353005 197.01152615 -110.97525136 189.80876076 -128.95166016 181.60986328 C-157.66384004 167.72777785 -178.1970082 144.14365872 -188.80859375 114.23828125 C-198.1765322 85.24228127 -195.41043551 52.89831755 -181.609375 25.78515625 C-177.6877783 18.49083123 -172.97929015 11.99536226 -167.5625 5.75 C-166.89863281 4.94175781 -166.23476562 4.13351563 -165.55078125 3.30078125 C-146.49433191 -19.13721918 -118.92077659 -31.02114869 -90.0625 -34.0625 C-55.43792979 -35.94896921 -24.97566437 -23.5816738 0 0 Z M-150.546875 18.04296875 C-163.10332749 33.0298404 -172.8463906 52.19984597 -172.625 72.125 C-172.61597656 73.18460937 -172.60695312 74.24421875 -172.59765625 75.3359375 C-172.58605469 76.13257813 -172.57445312 76.92921875 -172.5625 77.75 C-172.0048999 77.81469482 -171.4472998 77.87938965 -170.87280273 77.94604492 C-148.52146734 80.62085804 -130.39762995 86.51295867 -112.5625 100.75 C-111.71171875 101.39839844 -110.8609375 102.04679687 -109.984375 102.71484375 C-91.62423881 118.14328078 -82.88728643 142.51901294 -80.875 165.6875 C-80.771875 167.358125 -80.66875 169.02875 -80.5625 170.75 C-71.6525 169.76 -71.6525 169.76 -62.5625 168.75 C-62.8925 168.09 -63.2225 167.43 -63.5625 166.75 C-63.83871022 163.09021458 -63.80301467 160.38665647 -62.5 156.9375 C-59.73999609 153.82136655 -57.66126264 153.29650169 -53.5625 152.75 C-48.29944906 154.29261838 -45.1870316 156.68613124 -41.5625 160.75 C-37.66966762 159.31954422 -34.26928139 157.50321733 -30.75 155.3125 C-29.77417969 154.71566406 -28.79835937 154.11882812 -27.79296875 153.50390625 C-26.68888672 152.63572266 -26.68888672 152.63572266 -25.5625 151.75 C-25.23066665 148.48251666 -25.23066665 148.48251666 -28.11694336 145.87084961 C-29.28793738 144.70711301 -30.46700145 143.55146233 -31.65234375 142.40234375 C-32.27146133 141.78984268 -32.89057892 141.17734161 -33.52845764 140.54627991 C-35.51203038 138.5861607 -37.50546008 136.63645317 -39.5 134.6875 C-41.48922797 132.73330125 -43.4763241 130.77700155 -45.46083069 128.81800842 C-46.69747122 127.59837957 -47.937174 126.38184661 -49.18016052 125.16868591 C-54.49609419 119.94530459 -54.49609419 119.94530459 -54.75 115.375 C-54.57763501 112.04261022 -54.44353846 110.42305465 -52.5625 107.75 C-48.82299353 105.25699569 -45.89094133 104.89406292 -41.5625 105.75 C-33.81295757 109.9314 -27.68508688 117.40148089 -21.5625 123.625 C-20.49135677 124.70619634 -19.41974556 125.78692927 -18.34765625 126.8671875 C-15.74719056 129.48947435 -13.15310189 132.11796378 -10.5625 134.75 C-4.91615887 132.86788629 -2.25414415 125.85942916 0.4375 120.75 C6.77149718 107.65200367 9.74885114 94.25911903 10.4375 79.75 C8.65859375 79.62044922 8.65859375 79.62044922 6.84375 79.48828125 C-20.2334865 77.250842 -43.46896573 66.6961185 -61.5625 45.75 C-74.71984883 28.49185879 -80.59705097 9.11132761 -82.5625 -12.25 C-107.94687174 -13.98075262 -133.98109149 -0.77228536 -150.546875 18.04296875 Z M-61.5625 -10.25 C-61.16734637 9.04068158 -53.02411708 25.2195842 -39.5625 38.75 C-38.89863281 39.44867188 -38.23476562 40.14734375 -37.55078125 40.8671875 C-25.52291628 52.64304007 -8.99103578 58.01363595 7.4375 58.75 C4.59017002 37.44411704 -8.92470403 18.69383431 -25.6875 5.8125 C-30.47019457 2.3962896 -35.29237557 -0.65115857 -40.5625 -3.25 C-41.87347656 -3.91322266 -41.87347656 -3.91322266 -43.2109375 -4.58984375 C-49.23841808 -7.50228184 -54.93850139 -9.28729304 -61.5625 -10.25 Z M-170.5625 98.75 C-166.51174242 121.02916671 -152.544341 140.45416466 -134.5625 153.75 C-133.85480469 154.28496094 -133.14710938 154.81992187 -132.41796875 155.37109375 C-123.28762862 161.89276527 -112.68828062 166.26314453 -101.5625 167.75 C-100.37442169 153.19604072 -107.04243683 137.48418617 -116.24609375 126.38671875 C-118.88825401 123.36822843 -121.69472481 120.55404685 -124.5625 117.75 C-125.19542969 117.08484375 -125.82835937 116.4196875 -126.48046875 115.734375 C-136.54778526 105.8670714 -153.49103834 98.99003484 -167.49609375 98.65625 C-168.50800781 98.6871875 -169.51992187 98.718125 -170.5625 98.75 Z " fill="#000001" transform="translate(193.5625,105.25)"/>
<path d="M0 0 C2.2890625 1.75273132 2.2890625 1.75273132 4.6875 3.9909668 C5.56414307 4.80616791 6.44078613 5.62136902 7.34399414 6.46127319 C11.41820538 10.35558286 15.44942556 14.28703789 19.4375 18.26953125 C20.28425293 19.11295578 21.13100586 19.95638031 22.00341797 20.82536316 C23.77262161 22.58954809 25.54051383 24.35504911 27.30712891 26.12182617 C30.01575144 28.82823858 32.73230726 31.52652119 35.44921875 34.22460938 C37.17496738 35.94742776 38.900245 37.67071812 40.625 39.39453125 C41.43638428 40.19873001 42.24776855 41.00292877 43.08374023 41.83149719 C43.83212158 42.58295517 44.58050293 43.33441315 45.3515625 44.10864258 C46.00979004 44.7654451 46.66801758 45.42224762 47.34619141 46.09895325 C49.99006462 49.13807556 50.91865206 51.37245874 51.4375 55.375 C50.86485997 60.11973172 49.58191991 61.86582008 46 65 C43.27761887 65.98247222 40.87253619 66.39714989 38 66 C34.10621768 63.93797094 31.17430537 61.44556322 28.04199219 58.36425781 C27.57469696 57.9068924 27.10740173 57.44952698 26.62594604 56.978302 C25.09404425 55.47542339 23.56986688 53.96502903 22.046875 52.453125 C21.52314552 51.93505028 20.99941605 51.41697556 20.45981598 50.8832016 C17.69108267 48.14435636 14.92808416 45.3998799 12.16992188 42.65039062 C9.32634857 39.81780501 6.46468696 37.00426278 3.59833908 34.19475174 C1.39032175 32.0240382 -0.80411013 29.83996889 -2.99507904 27.65206146 C-4.04426705 26.60891091 -5.09843701 25.57074559 -6.15769196 24.53781891 C-7.6395816 23.09017979 -9.10122276 21.62462245 -10.55957031 20.15332031 C-11.39498352 19.32519836 -12.23039673 18.49707642 -13.09112549 17.64385986 C-15.44898304 14.37814234 -15.79098055 11.98735301 -16 8 C-15.0534468 4.52930495 -13.81844694 2.25475755 -11 0 C-7.01046296 -1.32984568 -3.9265495 -1.4061568 0 0 Z " fill="#000001" transform="translate(257,255)"/>
<path d="M0 0 C2.8100346 1.79363911 4.50940468 3.01880935 6 6 C6.42071592 9.05920574 6.48514117 11.9467746 6 15 C3.81840855 17.75569447 2.12822506 19.43588747 -1 21 C-8.75862069 21.43103448 -8.75862069 21.43103448 -12 19 C-14.71343699 15.91229584 -15.24875262 13.49777956 -15.0625 9.5 C-14.49135604 5.86047622 -13.92997604 4.91631282 -11.4375 1.9375 C-6.96300932 -0.58448566 -5.06911706 -0.72415958 0 0 Z " fill="#000001" transform="translate(506,276)"/>
<path d="M0 0 C3.24962741 2.4725426 4.71720978 4.09507129 5.9375 8 C6.03395399 12.62979174 4.99631034 14.91577993 1.875 18.3125 C-1.84398518 20.49538261 -4.78371265 21.02213027 -9 20 C-11.9375 17.5625 -11.9375 17.5625 -14 15 C-14.33 14.67 -14.66 14.34 -15 14 C-15.44171515 10.94585527 -15.47209366 8.05045134 -15 5 C-10.58053726 -0.73335706 -6.94670018 -1.6767897 0 0 Z " fill="#000000" transform="translate(217,331)"/>
</svg>
